# xmcd CD database file
#
# Track frame offsets:
#	150
#	13807
#	23321
#	34361
#	45043
#	56403
#	68344
#	78243
#	89425
#	102682
#	115837
#	127483
#	138077
#	149500
#	160603
#	172252
#	183431
#	196498
#
# Disc length: 2799 seconds
#
# Revision: 1
# Processed by: cddbd v1.5.2PL0 Copyright (c) Steve Scherf et al.
# Submitted via: CDex 2.14
#
DISCID=f20aed12
DTITLE=Oscar McLollie - Hey Lollie Lollie
DYEAR=2003
DGENRE=Blues
TTITLE0=Roll Hot Rod Roll
TTITLE1=Take Your Shoes Off Pop
TTITLE2=All That Oil In Texas
TTITLE3=The Honey Jump Pt 1
TTITLE4=Dig That Crazy Santa Claus
TTITLE5=Love Me Tonight
TTITLE6=Hey Lolly Lolly
TTITLE7=What You Call 'Em Joe
TTITLE8=The Honey Jump Pt 2
TTITLE9=Mama Don't Like It
TTITLE10=Eternal Love
TTITLE11=Hot Banana
TTITLE12=Lolly Pop
TTITLE13=Pretty Girl
TTITLE14=Wiggle Toe
TTITLE15=Hot Banana (Instrumental)
TTITLE16=Mama Don't Like It (Instrumental)
TTITLE17=Roll Hot Rod Roll
EXTD=Ace CDCHM 879 [UK, 2003] YEAR: 2003
EXTT0=
EXTT1=
EXTT2=
EXTT3=
EXTT4=
EXTT5=
EXTT6=
EXTT7=
EXTT8=
EXTT9=
EXTT10=
EXTT11=
EXTT12=
EXTT13=
EXTT14=
EXTT15=
EXTT16=
EXTT17=
PLAYORDER=
